<svg width="75" height="70" viewBox="0 0 75 70" fill="none" xmlns="http://www.w3.org/2000/svg">
<rect x="0.25" y="0.25" width="74.5" height="69.5" rx="6.75" fill="black"/>
<rect x="0.25" y="0.25" width="74.5" height="69.5" rx="6.75" stroke="#D3CBCB" stroke-width="0.5"/>
<path d="M51.603 53.673C50.775 53.673 50.016 53.489 49.326 53.121C48.682 52.799 48.061 52.362 47.463 51.81C46.635 51.028 45.715 49.993 44.703 48.705C43.691 47.417 42.633 46.037 41.529 44.565C40.471 43.047 39.459 41.575 38.493 40.149C37.573 38.677 36.791 37.389 36.147 36.285C35.825 36.285 35.457 36.262 35.043 36.216C34.629 36.17 34.238 36.101 33.87 36.009C33.18 35.779 32.835 35.549 32.835 35.319C32.835 35.135 32.973 34.997 33.249 34.905C33.525 34.813 33.824 34.744 34.146 34.698C35.664 34.468 37.504 34.146 39.666 33.732C41.828 33.272 44.036 32.674 46.29 31.938C48.59 31.156 50.729 30.259 52.707 29.247C54.731 28.189 56.364 26.97 57.606 25.59C58.848 24.164 59.469 22.554 59.469 20.76C59.469 19.334 59.055 18.138 58.227 17.172C57.399 16.206 56.318 15.424 54.984 14.826C53.696 14.182 52.293 13.699 50.775 13.377C49.257 13.055 47.785 12.848 46.359 12.756C44.979 12.618 43.806 12.549 42.84 12.549C40.448 12.549 37.826 12.825 34.974 13.377C32.122 13.929 29.316 14.642 26.556 15.516C23.796 16.39 21.358 17.356 19.242 18.414C19.196 18.46 19.104 18.506 18.966 18.552C18.874 18.598 18.782 18.621 18.69 18.621C18.414 18.621 18.276 18.437 18.276 18.069C18.276 17.149 18.782 16.344 19.794 15.654C20.806 14.918 22.117 14.274 23.727 13.722C25.383 13.17 27.154 12.71 29.04 12.342C30.926 11.928 32.766 11.606 34.56 11.376C36.4 11.146 38.01 10.985 39.39 10.893C40.816 10.755 41.828 10.686 42.426 10.686C43.714 10.686 45.209 10.778 46.911 10.962C48.613 11.1 50.338 11.399 52.086 11.859C53.88 12.273 55.536 12.894 57.054 13.722C58.572 14.55 59.791 15.608 60.711 16.896C61.677 18.138 62.16 19.702 62.16 21.588C62.16 23.888 61.47 25.889 60.09 27.591C58.71 29.293 56.916 30.719 54.708 31.869C52.546 33.019 50.2 33.939 47.67 34.629C45.186 35.273 42.84 35.733 40.632 36.009C41.138 37.297 41.828 38.838 42.702 40.632C43.622 42.426 44.634 44.174 45.738 45.876C46.842 47.578 47.946 49.004 49.05 50.154C50.2 51.258 51.212 51.81 52.086 51.81C52.868 51.81 53.466 51.534 53.88 50.982C54.34 50.384 54.662 49.648 54.846 48.774C55.03 47.9 55.145 47.049 55.191 46.221C55.237 45.347 55.26 44.634 55.26 44.082V43.668C55.26 43.254 55.375 43.047 55.605 43.047C56.019 43.047 56.387 43.3 56.709 43.806C57.031 44.312 57.284 44.864 57.468 45.462C57.652 46.06 57.744 46.52 57.744 46.842C57.836 47.992 57.606 49.096 57.054 50.154C56.502 51.166 55.743 51.994 54.777 52.638C53.811 53.328 52.753 53.673 51.603 53.673ZM24.831 55.881C23.819 55.881 23.106 55.513 22.692 54.777C22.278 54.087 22.071 53.236 22.071 52.224C22.071 50.706 22.416 48.866 23.106 46.704C23.796 44.496 24.67 42.173 25.728 39.735C26.832 37.251 28.005 34.813 29.247 32.421C30.489 30.029 31.662 27.821 32.766 25.797C33.916 23.773 34.859 22.14 35.595 20.898C36.147 19.932 36.722 18.897 37.32 17.793C37.918 16.643 38.562 15.631 39.252 14.757C39.482 14.435 39.873 14.228 40.425 14.136C40.977 14.044 41.414 13.998 41.736 13.998C42.104 13.998 42.518 14.09 42.978 14.274C43.438 14.412 43.668 14.734 43.668 15.24V15.378C43.668 15.976 43.415 16.574 42.909 17.172C40.839 20.53 38.769 23.75 36.699 26.832C34.675 29.914 32.766 33.226 30.972 36.768C30.558 37.504 29.983 38.562 29.247 39.942C28.511 41.276 27.729 42.748 26.901 44.358C26.119 45.968 25.475 47.555 24.969 49.119C24.463 50.637 24.256 51.971 24.348 53.121C24.348 53.351 24.394 53.604 24.486 53.88C24.624 54.156 24.854 54.294 25.176 54.294C25.406 54.294 25.521 54.501 25.521 54.915C25.521 55.145 25.452 55.352 25.314 55.536C25.222 55.766 25.061 55.881 24.831 55.881Z" fill="#F9F9F9"/>
</svg>
